# 3ds Max Wavefront OBJ Exporter v0.97b - (c)2007 guruware
# File Created: 27.08.2017 01:21:22

#
# object Cylinder007
#

v  -0.00540 -0.86493 -0.00119
v  0.36578 -0.88996 -0.37236
v  0.51952 -0.88996 -0.00119
v  -0.00540 -0.88996 -0.52610
v  -0.37657 -0.88996 -0.37236
v  -0.53032 -0.88996 -0.00119
v  -0.37657 -0.88996 0.36999
v  -0.00540 -0.88996 0.52373
v  0.36578 -0.88996 0.36999
v  0.53488 -0.94904 -0.00119
v  0.40515 -0.94904 -0.41174
v  0.57521 -0.94904 -0.00119
v  0.37663 -0.94904 -0.38322
v  -0.00540 -0.94904 -0.58179
v  -0.00540 -0.94904 -0.54146
v  -0.41595 -0.94904 -0.41174
v  -0.38743 -0.94904 -0.38322
v  -0.58600 -0.94904 -0.00119
v  -0.54567 -0.94904 -0.00119
v  -0.41595 -0.94904 0.40936
v  -0.38743 -0.94904 0.38085
v  -0.00540 -0.94904 0.57942
v  -0.00540 -0.94904 0.53909
v  0.40515 -0.94904 0.40936
v  0.37663 -0.94904 0.38085
v  0.39504 -0.56392 -0.40162
v  0.56091 -0.56392 -0.00119
v  -0.00540 -0.56392 -0.56749
v  -0.40583 -0.56392 -0.40162
v  -0.57170 -0.56392 -0.00119
v  -0.40583 -0.56392 0.39925
v  -0.00540 -0.56392 0.56512
v  0.39504 -0.56392 0.39925
v  0.61931 -0.51703 -0.00119
v  0.40160 -0.47084 -0.40818
v  0.57018 -0.47084 -0.00119
v  0.43634 -0.51703 -0.44292
v  -0.00540 -0.47084 -0.57677
v  -0.00540 -0.51703 -0.62589
v  -0.41239 -0.47084 -0.40818
v  -0.44713 -0.51703 -0.44292
v  -0.58098 -0.47084 -0.00119
v  -0.63010 -0.51703 -0.00119
v  -0.41239 -0.47084 0.40581
v  -0.44713 -0.51703 0.44055
v  -0.00540 -0.47084 0.57439
v  -0.00540 -0.51703 0.62352
v  0.40160 -0.47084 0.40581
v  0.43634 -0.51703 0.44055
v  0.59162 -0.15191 -0.00119
v  0.41676 0.15257 -0.42334
v  0.59162 0.15257 -0.00119
v  0.41676 -0.15191 -0.42334
v  -0.00540 0.15257 -0.59820
v  -0.00540 -0.15191 -0.59820
v  -0.42755 0.15257 -0.42334
v  -0.42755 -0.15191 -0.42334
v  -0.60242 0.15257 -0.00119
v  -0.60242 -0.15191 -0.00119
v  -0.42755 0.15257 0.42097
v  -0.42755 -0.15191 0.42097
v  -0.00540 0.15257 0.59583
v  -0.00540 -0.15191 0.59583
v  0.41676 0.15257 0.42097
v  0.41676 -0.15191 0.42097
v  0.57018 0.47149 -0.00119
v  0.43634 0.51768 -0.44292
v  0.61931 0.51768 -0.00119
v  0.40160 0.47149 -0.40818
v  -0.00540 0.51768 -0.62589
v  -0.00540 0.47149 -0.57677
v  -0.44713 0.51768 -0.44292
v  -0.41239 0.47149 -0.40818
v  -0.63010 0.51768 -0.00119
v  -0.58098 0.47149 -0.00119
v  -0.44713 0.51768 0.44055
v  -0.41239 0.47149 0.40581
v  -0.00540 0.51768 0.62352
v  -0.00540 0.47149 0.57439
v  0.43634 0.51768 0.44055
v  0.40160 0.47149 0.40581
v  0.56091 0.56457 -0.00119
v  0.40515 0.94970 -0.41174
v  0.57521 0.94970 -0.00119
v  0.39504 0.56457 -0.40162
v  -0.00540 0.94970 -0.58179
v  -0.00540 0.56457 -0.56749
v  -0.41595 0.94970 -0.41174
v  -0.40583 0.56457 -0.40162
v  -0.58600 0.94970 -0.00119
v  -0.57170 0.56457 -0.00119
v  -0.41595 0.94970 0.40936
v  -0.40583 0.56457 0.39925
v  -0.00540 0.94970 0.57942
v  -0.00540 0.56457 0.56512
v  0.40515 0.94970 0.40936
v  0.39504 0.56457 0.39925
v  0.37663 0.94970 -0.38322
v  0.53488 0.94970 -0.00119
v  -0.00540 0.94970 -0.54146
v  -0.38743 0.94970 -0.38322
v  -0.54567 0.94970 -0.00119
v  -0.38743 0.94970 0.38085
v  -0.00540 0.94970 0.53909
v  0.37663 0.94970 0.38085
v  -0.00540 0.86559 -0.00119
v  0.51952 0.89062 -0.00119
v  0.36578 0.89062 -0.37236
v  -0.00540 0.89062 -0.52610
v  -0.37657 0.89062 -0.37236
v  -0.53032 0.89062 -0.00119
v  -0.37657 0.89062 0.36999
v  -0.00540 0.89062 0.52373
v  0.36578 0.89062 0.36999
v  0.26780 -0.46149 -0.48241
v  -0.00540 0.15257 -0.61631
v  0.42071 -0.15700 -0.42730
v  -0.00540 -0.15191 -0.61631
v  -0.27860 0.45363 -0.48241
v  -0.43151 0.14914 -0.42730
v  -0.43151 0.14914 0.42493
v  -0.00540 0.15257 0.60143
v  -0.27860 0.45363 0.48004
v  -0.00540 -0.15191 0.60143
v  0.42071 -0.15700 0.42493
v  0.26780 -0.46149 0.48004
# 126 vertices

vn 0.00000 -1.00000 -0.00000
vn -0.03368 -0.99886 0.03368
vn -0.04764 -0.99886 -0.00000
vn 0.00000 -0.99886 0.04764
vn 0.03368 -0.99886 0.03368
vn 0.04764 -0.99886 -0.00000
vn 0.03368 -0.99886 -0.03368
vn 0.00000 -0.99886 -0.04764
vn -0.03368 -0.99886 -0.03368
vn 0.99931 0.03711 -0.00000
vn 0.70662 0.03711 -0.70662
vn 0.99931 0.03711 0.00000
vn 0.00000 0.03711 -0.99931
vn -0.70662 0.03711 -0.70662
vn -0.99931 0.03711 0.00000
vn -0.70662 0.03711 0.70662
vn 0.00000 0.03711 0.99931
vn 0.70662 0.03711 0.70662
vn 0.99944 -0.03339 0.00000
vn 0.48436 0.72855 -0.48436
vn 0.68499 0.72855 0.00000
vn 0.70671 -0.03339 -0.70671
vn 0.00000 0.72855 -0.68499
vn -0.00000 -0.03339 -0.99944
vn -0.48436 0.72855 -0.48436
vn -0.70671 -0.03339 -0.70671
vn -0.68499 0.72855 0.00000
vn -0.99944 -0.03339 0.00000
vn -0.48436 0.72855 0.48436
vn -0.70671 -0.03339 0.70671
vn -0.00000 0.72855 0.68499
vn 0.00000 -0.03339 0.99944
vn 0.48436 0.72855 0.48436
vn 0.70671 -0.03339 0.70671
vn 0.99945 -0.03328 0.00000
vn 0.70672 0.03328 -0.70672
vn 0.99945 0.03328 0.00000
vn 0.70672 -0.03328 -0.70671
vn 0.00000 0.03328 -0.99945
vn -0.00000 -0.03328 -0.99945
vn -0.70672 0.03328 -0.70672
vn -0.70672 -0.03328 -0.70672
vn -0.99945 0.03328 0.00000
vn -0.99945 -0.03328 0.00000
vn -0.70671 0.03328 0.70672
vn -0.70671 -0.03328 0.70672
vn -0.00000 0.03328 0.99945
vn 0.00000 -0.03328 0.99945
vn 0.70671 0.03328 0.70672
vn 0.70671 -0.03328 0.70672
vn 0.68499 -0.72855 -0.00000
vn 0.70671 0.03339 -0.70671
vn 0.99944 0.03339 -0.00000
vn 0.48436 -0.72855 -0.48436
vn -0.00000 0.03339 -0.99944
vn -0.00000 -0.72855 -0.68499
vn -0.70671 0.03339 -0.70671
vn -0.48436 -0.72855 -0.48436
vn -0.99944 0.03339 0.00000
vn -0.68499 -0.72855 0.00000
vn -0.70671 0.03339 0.70671
vn -0.48436 -0.72855 0.48436
vn -0.00000 0.03339 0.99944
vn 0.00000 -0.72855 0.68499
vn 0.70671 0.03339 0.70671
vn 0.48436 -0.72855 0.48436
vn 0.99931 -0.03711 0.00000
vn 0.70662 -0.03711 -0.70662
vn 0.99931 -0.03711 -0.00000
vn -0.00000 -0.03711 -0.99931
vn -0.70662 -0.03711 -0.70662
vn -0.99931 -0.03711 0.00000
vn -0.70662 -0.03711 0.70662
vn -0.00000 -0.03711 0.99931
vn 0.70662 -0.03711 0.70662
vn 0.00000 1.00000 -0.00000
vn -0.04764 0.99886 0.00000
vn -0.03368 0.99886 0.03368
vn 0.00000 0.99886 0.04764
vn 0.03368 0.99886 0.03368
vn 0.04764 0.99886 -0.00000
vn 0.03368 0.99886 -0.03368
vn -0.00000 0.99886 -0.04764
vn -0.03368 0.99886 -0.03368
vn -0.68436 -0.25158 0.68436
vn -0.96784 -0.25158 0.00000
vn 0.00000 -0.25158 0.96784
vn 0.68436 -0.25158 0.68436
vn 0.96784 -0.25158 -0.00000
vn 0.68436 -0.25158 -0.68436
vn -0.00000 -0.25158 -0.96784
vn -0.68436 -0.25158 -0.68436
vn -0.96784 0.25158 -0.00000
vn -0.68436 0.25158 0.68436
vn -0.00000 0.25158 0.96784
vn 0.68436 0.25158 0.68436
vn 0.96784 0.25158 0.00000
vn 0.68436 0.25158 -0.68436
vn 0.00000 0.25158 -0.96784
vn -0.68436 0.25158 -0.68436
vn 0.62604 -0.77979 -0.00000
vn 0.44268 -0.77979 -0.44268
vn 0.00000 -0.77979 -0.62604
vn -0.44268 -0.77979 -0.44268
vn -0.62604 -0.77979 0.00000
vn -0.44268 -0.77979 0.44268
vn -0.00000 -0.77979 0.62605
vn 0.44268 -0.77979 0.44268
vn 0.99775 -0.06707 -0.00000
vn 0.70551 -0.06707 -0.70551
vn -0.00000 -0.06707 -0.99775
vn -0.70551 -0.06707 -0.70551
vn -0.99775 -0.06707 0.00000
vn -0.70551 -0.06707 0.70551
vn 0.00000 -0.06707 0.99775
vn 0.70551 -0.06707 0.70551
vn 0.70551 0.06707 -0.70551
vn 0.99775 0.06707 0.00000
vn 0.00000 0.06707 -0.99775
vn -0.70551 0.06707 -0.70551
vn -0.99775 0.06707 0.00000
vn -0.70551 0.06707 0.70551
vn -0.00000 0.06707 0.99775
vn 0.70551 0.06707 0.70551
vn 0.44268 0.77979 -0.44268
vn 0.62604 0.77979 0.00000
vn -0.00000 0.77979 -0.62604
vn -0.44268 0.77979 -0.44268
vn -0.62604 0.77979 0.00000
vn -0.44268 0.77979 0.44268
vn 0.00000 0.77979 0.62604
vn 0.44268 0.77979 0.44268
vn 0.40129 -0.02115 -0.91571
vn -0.20451 -0.00482 -0.97885
vn 0.38813 -0.02820 -0.92118
vn 0.20317 0.00488 -0.97913
vn -0.40175 0.02119 -0.91550
vn -0.38848 0.02840 -0.92102
vn -0.38274 0.01622 0.92371
vn -0.16877 0.00638 0.98563
vn -0.38274 0.02507 0.92352
vn 0.16749 -0.00623 0.98585
vn 0.38247 -0.01621 0.92383
vn 0.38231 -0.02482 0.92370
# 144 vertex normals

vt 0.56500 0.93405 0.00000
vt 0.56660 0.92415 0.00000
vt 0.56459 0.92411 0.00000
vt 0.56511 0.93406 0.00000
vt 0.56713 0.92416 0.00000
vt 0.56509 0.92411 0.00000
vt 0.56465 0.93407 0.00000
vt 0.56503 0.92411 0.00000
vt 0.56299 0.92406 0.00000
vt 0.56529 0.93408 0.00000
vt 0.56817 0.92419 0.00000
vt 0.56617 0.92415 0.00000
vt 0.56531 0.93400 0.00000
vt 0.56810 0.92419 0.00000
vt 0.56610 0.92414 0.00000
vt 0.56552 0.93413 0.00000
vt 0.56904 0.92422 0.00000
vt 0.56700 0.92416 0.00000
vt 0.56444 0.93400 0.00000
vt 0.56409 0.92408 0.00000
vt 0.56205 0.92404 0.00000
vt 0.56481 0.93397 0.00000
vt 0.56580 0.92413 0.00000
vt 0.56380 0.92408 0.00000
vt 0.49813 0.98033 0.43242
vt 0.50875 0.97606 0.46470
vt 0.50875 0.98005 0.46470
vt 0.49813 0.97621 0.43242
vt 0.50876 0.97206 0.46470
vt 0.49814 0.97208 0.43242
vt 0.50876 0.96807 0.46470
vt 0.49814 0.96796 0.43242
vt 0.50876 0.96408 0.46470
vt 0.49815 0.96384 0.43242
vt 0.50877 0.96008 0.46470
vt 0.49815 0.95971 0.43242
vt 0.50877 0.95609 0.46470
vt 0.49815 0.95559 0.43242
vt 0.50878 0.95210 0.46470
vt 0.49816 0.95147 0.43242
vt 0.49816 0.94734 0.46470
vt 0.56043 0.93365 0.43242
vt 0.56360 0.93365 0.43242
vt 0.56360 0.93365 0.46470
vt 0.57763 1.96872 0.46470
vt 0.55346 1.93956 0.45326
vt 0.57763 1.93956 0.45326
vt 0.55346 1.96872 0.46470
vt 0.52929 1.93956 0.45326
vt 0.52929 1.96872 0.46470
vt 0.52881 1.96872 0.46470
vt 0.55312 1.93993 0.45326
vt 0.52881 1.93993 0.45326
vt 0.55312 1.96872 0.46470
vt 0.57743 1.93993 0.45326
vt 0.57743 1.96872 0.46470
vt 0.57775 1.96872 0.46470
vt 0.55381 1.93968 0.45326
vt 0.57775 1.93968 0.45326
vt 0.55381 1.96872 0.46470
vt 0.52988 1.93968 0.45326
vt 0.52988 1.96872 0.46470
vt 0.52926 1.96872 0.46470
vt 0.55329 1.93956 0.45326
vt 0.52926 1.93956 0.45326
vt 0.55329 1.96872 0.46470
vt 0.57731 1.93956 0.45326
vt 0.57731 1.96872 0.46470
vt 0.49989 0.93155 0.50000
vt 0.51686 0.93930 0.46068
vt 0.49989 0.93930 0.46068
vt 0.51686 0.93155 0.50000
vt 0.53382 0.93930 0.46068
vt 0.53382 0.93155 0.50000
vt 0.55079 0.93930 0.46068
vt 0.55079 0.93155 0.50000
vt 0.56776 0.93930 0.46068
vt 0.56776 0.93155 0.50000
vt 0.49935 0.93155 0.50000
vt 0.51632 0.93930 0.46068
vt 0.49935 0.93930 0.46068
vt 0.51632 0.93155 0.50000
vt 0.53328 0.93930 0.46068
vt 0.53328 0.93155 0.50000
vt 0.55025 0.93930 0.46068
vt 0.55025 0.93155 0.50000
vt 0.56721 0.93930 0.46068
vt 0.56721 0.93155 0.50000
vt 0.57748 1.95951 0.47784
vt 0.55275 1.97801 0.47784
vt 0.57748 1.97801 0.47784
vt 0.55275 1.95951 0.47784
vt 0.52803 1.97801 0.47784
vt 0.52803 1.95951 0.47784
vt 0.52822 1.95951 0.47784
vt 0.55295 1.97801 0.47784
vt 0.52822 1.97801 0.47784
vt 0.55295 1.95951 0.47784
vt 0.57768 1.97801 0.47784
vt 0.57768 1.95951 0.47784
vt 0.57737 1.95951 0.47784
vt 0.55264 1.97801 0.47784
vt 0.57737 1.97801 0.47784
vt 0.55264 1.95951 0.47784
vt 0.52791 1.97801 0.47784
vt 0.52791 1.95951 0.47784
vt 0.52834 1.95951 0.47784
vt 0.55307 1.97801 0.47784
vt 0.52834 1.97801 0.47784
vt 0.55307 1.95951 0.47784
vt 0.57779 1.97801 0.47784
vt 0.57779 1.95951 0.47784
vt 0.49963 0.92353 0.46068
vt 0.51670 0.93130 0.50000
vt 0.49963 0.93130 0.50000
vt 0.51670 0.92353 0.46068
vt 0.53377 0.93130 0.50000
vt 0.53377 0.92353 0.46068
vt 0.55084 0.93130 0.50000
vt 0.55084 0.92353 0.46068
vt 0.56792 0.93130 0.50000
vt 0.56792 0.92353 0.46068
vt 0.49951 0.92353 0.46068
vt 0.51658 0.93130 0.50000
vt 0.49951 0.93130 0.50000
vt 0.51658 0.92353 0.46068
vt 0.53366 0.93130 0.50000
vt 0.53366 0.92353 0.46068
vt 0.55073 0.93130 0.50000
vt 0.55073 0.92353 0.46068
vt 0.56780 0.93130 0.50000
vt 0.56780 0.92353 0.46068
vt 0.57772 1.93980 0.45326
vt 0.55329 1.96836 0.46470
vt 0.57772 1.96836 0.46470
vt 0.55329 1.93980 0.45326
vt 0.52886 1.96836 0.46470
vt 0.52886 1.93980 0.45326
vt 0.52905 1.93980 0.45326
vt 0.55348 1.96836 0.46470
vt 0.52905 1.96836 0.46470
vt 0.55348 1.93980 0.45326
vt 0.57791 1.96836 0.46470
vt 0.57791 1.93980 0.45326
vt 0.57760 1.93980 0.45326
vt 0.55317 1.96836 0.46470
vt 0.57760 1.96836 0.46470
vt 0.55317 1.93980 0.45326
vt 0.52874 1.96836 0.46470
vt 0.52874 1.93980 0.45326
vt 0.52916 1.93980 0.45326
vt 0.55359 1.96836 0.46470
vt 0.52916 1.96836 0.46470
vt 0.55359 1.93980 0.45326
vt 0.57802 1.96836 0.46470
vt 0.57802 1.93980 0.45326
vt 0.50852 0.97935 0.46470
vt 0.49812 0.97599 0.43242
vt 0.49813 0.98019 0.43242
vt 0.50851 0.97528 0.46470
vt 0.49810 0.97179 0.43242
vt 0.50849 0.97122 0.46470
vt 0.49809 0.96760 0.43242
vt 0.50848 0.96715 0.46470
vt 0.49807 0.96340 0.43242
vt 0.50847 0.96308 0.46470
vt 0.49806 0.95920 0.43242
vt 0.50845 0.95902 0.46470
vt 0.49804 0.95500 0.43242
vt 0.50844 0.95495 0.46470
vt 0.49803 0.95080 0.43242
vt 0.50842 0.95089 0.46470
vt 0.49801 0.94661 0.43242
vt 0.49801 0.94661 0.46470
vt 0.56563 0.93407 0.00000
vt 0.56711 0.92410 0.00000
vt 0.56915 0.92416 0.00000
vt 0.56678 0.93365 0.43242
vt 0.56375 0.92263 0.42013
vt 0.56678 0.92263 0.42013
vt 0.54457 0.93365 0.43242
vt 0.54140 0.93365 0.43242
vt 0.54142 0.92263 0.42013
vt 0.54461 0.92263 0.42013
vt 0.54774 0.93365 0.43242
vt 0.54780 0.92263 0.42013
vt 0.55091 0.93365 0.43242
vt 0.55099 0.92263 0.42013
vt 0.55409 0.93365 0.43242
vt 0.55418 0.92263 0.42013
vt 0.55726 0.93365 0.43242
vt 0.55737 0.92263 0.42013
vt 0.56056 0.92263 0.42013
vt 0.54128 0.93419 0.43242
vt 0.54432 0.93419 0.43242
vt 0.54435 0.92272 0.42013
vt 0.56865 0.92272 0.42013
vt 0.56586 0.92272 0.42013
vt 0.56561 0.93419 0.43242
vt 0.54736 0.93419 0.43242
vt 0.54743 0.92272 0.42013
vt 0.55041 0.93419 0.43242
vt 0.55050 0.92272 0.42013
vt 0.55345 0.93419 0.43242
vt 0.55357 0.92272 0.42013
vt 0.55649 0.93419 0.43242
vt 0.55664 0.92272 0.42013
vt 0.55953 0.93419 0.43242
vt 0.55972 0.92272 0.42013
vt 0.56257 0.93419 0.43242
vt 0.56279 0.92272 0.42013
vt 0.49989 0.92369 0.45326
vt 0.51686 0.92369 0.45326
vt 0.53382 0.92369 0.45326
vt 0.55079 0.92369 0.45326
vt 0.56776 0.92369 0.45326
vt 0.49935 0.92369 0.45326
vt 0.51632 0.92369 0.45326
vt 0.53328 0.92369 0.45326
vt 0.55025 0.92369 0.45326
vt 0.56721 0.92369 0.45326
vt 0.57748 1.94014 0.46068
vt 0.55275 1.94014 0.46068
vt 0.52803 1.94014 0.46068
vt 0.52822 1.94014 0.46068
vt 0.55295 1.94014 0.46068
vt 0.57768 1.94014 0.46068
vt 0.57737 1.94014 0.46068
vt 0.55264 1.94014 0.46068
vt 0.52791 1.94014 0.46068
vt 0.52834 1.94014 0.46068
vt 0.55307 1.94014 0.46068
vt 0.57779 1.94014 0.46068
vt 0.55275 1.99738 0.46068
vt 0.57748 1.99738 0.46068
vt 0.52803 1.99738 0.46068
vt 0.55295 1.99738 0.46068
vt 0.52822 1.99738 0.46068
vt 0.57768 1.99738 0.46068
vt 0.55264 1.99738 0.46068
vt 0.57737 1.99738 0.46068
vt 0.52791 1.99738 0.46068
vt 0.55307 1.99738 0.46068
vt 0.52834 1.99738 0.46068
vt 0.57779 1.99738 0.46068
vt 0.51670 0.93919 0.45326
vt 0.49963 0.93919 0.45326
vt 0.53377 0.93919 0.45326
vt 0.55084 0.93919 0.45326
vt 0.56792 0.93919 0.45326
vt 0.51658 0.93919 0.45326
vt 0.49951 0.93919 0.45326
vt 0.53366 0.93919 0.45326
vt 0.55073 0.93919 0.45326
vt 0.56780 0.93919 0.45326
vt 0.61851 0.92213 0.44290
vt 0.63250 0.94180 0.49233
vt 0.61934 0.94234 0.48232
vt 0.62854 0.92695 0.49233
vt 0.64242 0.94621 0.44290
vt 0.64159 0.92599 0.48232
vt 0.64177 0.92587 0.48232
vt 0.63268 0.94167 0.48232
vt 0.64234 0.94509 0.44290
vt 0.62898 0.92781 0.48232
vt 0.61979 0.94322 0.48232
vt 0.61922 0.92400 0.44290
# 267 texture coords

g Cylinder007
f 1/1/1 2/2/2 3/3/3 
f 1/4/1 4/5/4 2/6/2 
f 1/7/1 5/8/5 4/9/4 
f 1/10/1 6/11/6 5/12/5 
f 1/13/1 7/14/7 6/15/6 
f 1/16/1 8/17/8 7/18/7 
f 1/19/1 9/20/9 8/21/8 
f 1/22/1 3/23/3 9/24/9 
f 10/25/1 11/26/1 12/27/1 
f 10/25/1 13/28/1 11/26/1 
f 13/28/1 14/29/1 11/26/1 
f 13/28/1 15/30/1 14/29/1 
f 15/30/1 16/31/1 14/29/1 
f 15/30/1 17/32/1 16/31/1 
f 17/32/1 18/33/1 16/31/1 
f 17/32/1 19/34/1 18/33/1 
f 19/34/1 20/35/1 18/33/1 
f 19/34/1 21/36/1 20/35/1 
f 21/36/1 22/37/1 20/35/1 
f 21/36/1 23/38/1 22/37/1 
f 23/38/1 24/39/1 22/37/1 
f 23/38/1 25/40/1 24/39/1 
f 25/40/1 12/41/1 24/39/1 
f 25/42/1 10/43/1 12/44/1 
f 12/45/10 26/46/11 27/47/12 
f 12/45/10 11/48/11 26/46/11 
f 11/48/11 28/49/13 26/46/11 
f 11/48/11 14/50/13 28/49/13 
f 14/51/13 29/52/14 28/53/13 
f 14/51/13 16/54/14 29/52/14 
f 16/54/14 30/55/15 29/52/14 
f 16/54/14 18/56/15 30/55/15 
f 18/57/15 31/58/16 30/59/15 
f 18/57/15 20/60/16 31/58/16 
f 20/60/16 32/61/17 31/58/16 
f 20/60/16 22/62/17 32/61/17 
f 22/63/17 33/64/18 32/65/17 
f 22/63/17 24/66/18 33/64/18 
f 24/66/18 27/67/12 33/64/18 
f 24/66/18 12/68/10 27/67/12 
f 34/69/19 35/70/20 36/71/21 
f 34/69/19 37/72/22 35/70/20 
f 37/72/22 38/73/23 35/70/20 
f 37/72/22 39/74/24 38/73/23 
f 39/74/24 40/75/25 38/73/23 
f 39/74/24 41/76/26 40/75/25 
f 41/76/26 42/77/27 40/75/25 
f 41/76/26 43/78/28 42/77/27 
f 43/79/28 44/80/29 42/81/27 
f 43/79/28 45/82/30 44/80/29 
f 45/82/30 46/83/31 44/80/29 
f 45/82/30 47/84/32 46/83/31 
f 47/84/32 48/85/33 46/83/31 
f 47/84/32 49/86/34 48/85/33 
f 49/86/34 36/87/21 48/85/33 
f 49/86/34 34/88/19 36/87/21 
f 50/89/35 51/90/36 52/91/37 
f 50/89/35 53/92/38 51/90/36 
f 53/92/38 54/93/39 51/90/36 
f 53/92/38 55/94/40 54/93/39 
f 55/95/40 56/96/41 54/97/39 
f 55/95/40 57/98/42 56/96/41 
f 57/98/42 58/99/43 56/96/41 
f 57/98/42 59/100/44 58/99/43 
f 59/101/44 60/102/45 58/103/43 
f 59/101/44 61/104/46 60/102/45 
f 61/104/46 62/105/47 60/102/45 
f 61/104/46 63/106/48 62/105/47 
f 63/107/48 64/108/49 62/109/47 
f 63/107/48 65/110/50 64/108/49 
f 65/110/50 52/111/37 64/108/49 
f 65/110/50 50/112/35 52/111/37 
f 66/113/51 67/114/52 68/115/53 
f 66/113/51 69/116/54 67/114/52 
f 69/116/54 70/117/55 67/114/52 
f 69/116/54 71/118/56 70/117/55 
f 71/118/56 72/119/57 70/117/55 
f 71/118/56 73/120/58 72/119/57 
f 73/120/58 74/121/59 72/119/57 
f 73/120/58 75/122/60 74/121/59 
f 75/123/60 76/124/61 74/125/59 
f 75/123/60 77/126/62 76/124/61 
f 77/126/62 78/127/63 76/124/61 
f 77/126/62 79/128/64 78/127/63 
f 79/128/64 80/129/65 78/127/63 
f 79/128/64 81/130/66 80/129/65 
f 81/130/66 68/131/53 80/129/65 
f 81/130/66 66/132/51 68/131/53 
f 82/133/67 83/134/68 84/135/69 
f 82/133/67 85/136/68 83/134/68 
f 85/136/68 86/137/70 83/134/68 
f 85/136/68 87/138/70 86/137/70 
f 87/139/70 88/140/71 86/141/70 
f 87/139/70 89/142/71 88/140/71 
f 89/142/71 90/143/72 88/140/71 
f 89/142/71 91/144/72 90/143/72 
f 91/145/72 92/146/73 90/147/72 
f 91/145/72 93/148/73 92/146/73 
f 93/148/73 94/149/74 92/146/73 
f 93/148/73 95/150/74 94/149/74 
f 95/151/74 96/152/75 94/153/74 
f 95/151/74 97/154/75 96/152/75 
f 97/154/75 84/155/69 96/152/75 
f 97/154/75 82/156/67 84/155/69 
f 84/157/76 98/158/76 99/159/76 
f 84/157/76 83/160/76 98/158/76 
f 83/160/76 100/161/76 98/158/76 
f 83/160/76 86/162/76 100/161/76 
f 86/162/76 101/163/76 100/161/76 
f 86/162/76 88/164/76 101/163/76 
f 88/164/76 102/165/76 101/163/76 
f 88/164/76 90/166/76 102/165/76 
f 90/166/76 103/167/76 102/165/76 
f 90/166/76 92/168/76 103/167/76 
f 92/168/76 104/169/76 103/167/76 
f 92/168/76 94/170/76 104/169/76 
f 94/170/76 105/171/76 104/169/76 
f 94/170/76 96/172/76 105/171/76 
f 96/172/76 99/173/76 105/171/76 
f 96/172/76 84/174/76 99/173/76 
f 106/1/76 107/3/77 108/2/78 
f 106/4/76 108/6/78 109/5/79 
f 106/7/76 109/9/79 110/8/80 
f 106/10/76 110/12/80 111/11/81 
f 106/13/76 111/15/81 112/14/82 
f 106/175/76 112/176/82 113/177/83 
f 106/19/76 113/21/83 114/20/84 
f 106/22/76 114/24/84 107/23/77 
f 13/178/85 10/43/86 3/179/86 
f 3/179/86 2/180/85 13/178/85 
f 15/181/87 13/182/85 2/183/85 
f 2/183/85 4/184/87 15/181/87 
f 17/185/88 15/181/87 4/184/87 
f 4/184/87 5/186/88 17/185/88 
f 19/187/89 17/185/88 5/186/88 
f 5/186/88 6/188/89 19/187/89 
f 21/189/90 19/187/89 6/188/89 
f 6/188/89 7/190/90 21/189/90 
f 23/191/91 21/189/90 7/190/90 
f 7/190/90 8/192/91 23/191/91 
f 25/42/92 23/191/91 8/192/91 
f 8/192/91 9/193/92 25/42/92 
f 10/43/86 25/42/92 9/193/92 
f 9/193/92 3/179/86 10/43/86 
f 99/194/93 98/195/94 108/196/94 
f 108/197/94 107/198/93 99/199/93 
f 98/195/94 100/200/95 109/201/95 
f 109/201/95 108/196/94 98/195/94 
f 100/200/95 101/202/96 110/203/96 
f 110/203/96 109/201/95 100/200/95 
f 101/202/96 102/204/97 111/205/97 
f 111/205/97 110/203/96 101/202/96 
f 102/204/97 103/206/98 112/207/98 
f 112/207/98 111/205/97 102/204/97 
f 103/206/98 104/208/99 113/209/99 
f 113/209/99 112/207/98 103/206/98 
f 104/208/99 105/210/100 114/211/100 
f 114/211/100 113/209/99 104/208/99 
f 105/210/100 99/199/93 107/198/93 
f 107/198/93 114/211/100 105/210/100 
f 27/212/101 26/213/102 37/72/22 
f 37/72/22 34/69/19 27/212/101 
f 26/213/102 28/214/103 39/74/24 
f 39/74/24 37/72/22 26/213/102 
f 28/214/103 29/215/104 41/76/26 
f 41/76/26 39/74/24 28/214/103 
f 29/215/104 30/216/105 43/78/28 
f 43/78/28 41/76/26 29/215/104 
f 30/217/105 31/218/106 45/82/30 
f 45/82/30 43/79/28 30/217/105 
f 31/218/106 32/219/107 47/84/32 
f 47/84/32 45/82/30 31/218/106 
f 32/219/107 33/220/108 49/86/34 
f 49/86/34 47/84/32 32/219/107 
f 33/220/108 27/221/101 34/88/19 
f 34/88/19 49/86/34 33/220/108 
f 53/92/38 50/89/35 36/222/109 
f 36/222/109 35/223/110 53/92/38 
f 55/94/40 53/92/38 35/223/110 
f 35/223/110 38/224/111 55/94/40 
f 57/98/42 55/95/40 38/225/111 
f 38/225/111 40/226/112 57/98/42 
f 59/100/44 57/98/42 40/226/112 
f 40/226/112 42/227/113 59/100/44 
f 61/104/46 59/101/44 42/228/113 
f 42/228/113 44/229/114 61/104/46 
f 63/106/48 61/104/46 44/229/114 
f 44/229/114 46/230/115 63/106/48 
f 65/110/50 63/107/48 46/231/115 
f 46/231/115 48/232/116 65/110/50 
f 50/112/35 65/110/50 48/232/116 
f 48/232/116 36/233/109 50/112/35 
f 52/91/37 51/90/36 69/234/117 
f 69/234/117 66/235/118 52/91/37 
f 51/90/36 54/93/39 71/236/119 
f 71/236/119 69/234/117 51/90/36 
f 54/97/39 56/96/41 73/237/120 
f 73/237/120 71/238/119 54/97/39 
f 56/96/41 58/99/43 75/239/121 
f 75/239/121 73/237/120 56/96/41 
f 58/103/43 60/102/45 77/240/122 
f 77/240/122 75/241/121 58/103/43 
f 60/102/45 62/105/47 79/242/123 
f 79/242/123 77/240/122 60/102/45 
f 62/109/47 64/108/49 81/243/124 
f 81/243/124 79/244/123 62/109/47 
f 64/108/49 52/111/37 66/245/118 
f 66/245/118 81/243/124 64/108/49 
f 85/246/125 82/247/126 68/115/53 
f 68/115/53 67/114/52 85/246/125 
f 87/248/127 85/246/125 67/114/52 
f 67/114/52 70/117/55 87/248/127 
f 89/249/128 87/248/127 70/117/55 
f 70/117/55 72/119/57 89/249/128 
f 91/250/129 89/249/128 72/119/57 
f 72/119/57 74/121/59 91/250/129 
f 93/251/130 91/252/129 74/125/59 
f 74/125/59 76/124/61 93/251/130 
f 95/253/131 93/251/130 76/124/61 
f 76/124/61 78/127/63 95/253/131 
f 97/254/132 95/253/131 78/127/63 
f 78/127/63 80/129/65 97/254/132 
f 82/255/126 97/254/132 80/129/65 
f 80/129/65 68/131/53 82/255/126 
f 115/256/133 116/257/134 117/258/135 
f 115/256/133 118/259/136 116/257/134 
f 118/259/136 119/260/137 116/257/134 
f 118/259/136 120/261/138 119/260/137 
f 121/262/139 122/263/140 123/264/141 
f 121/262/139 124/265/142 122/263/140 
f 124/265/142 125/266/143 122/263/140 
f 124/265/142 126/267/144 125/266/143 
# 232 faces

