# 3ds Max Wavefront OBJ Exporter v0.97b - (c)2007 guruware
# File Created: 21.09.2017 01:27:17

#
# object Box003
#

v  -2.629066 -7.612482 -3.589706
v  -3.688582 -2.045193 -4.587687
v  -2.022450 -2.045193 -5.338015
v  -1.686302 -7.612482 -5.289229
v  1.662633 -2.045193 -5.338015
v  0.877811 -7.612482 -5.301787
v  3.914060 -2.045193 -3.639320
v  2.718628 -7.612482 -2.612621
v  -5.186602 2.539489 -4.709794
v  -2.022450 2.539489 -5.758893
v  1.662633 2.539489 -5.758893
v  4.545105 2.539489 -4.433455
v  -4.534850 6.242199 -3.211270
v  -2.022450 8.091681 -3.539010
v  1.662633 8.091681 -3.539010
v  4.074148 6.242199 -3.376263
v  -3.919713 -7.612485 4.011619
v  -2.242356 -7.612485 4.379366
v  -2.022450 -2.045193 4.240578
v  -4.413178 -2.045193 3.358416
v  1.300338 -7.612485 3.081539
v  1.662633 -2.045193 4.240578
v  3.939798 -7.612485 1.854262
v  4.787958 -2.045193 3.409224
v  -2.022450 1.904506 4.240578
v  -4.931632 1.904506 3.358416
v  1.662633 1.904506 4.240578
v  4.856421 1.904506 3.409224
v  -2.022450 8.091681 3.076134
v  -4.279880 6.242196 2.573775
v  1.662633 8.091681 3.076134
v  4.254219 6.242196 2.624584
v  -2.560794 -7.612483 0.107194
v  -3.616794 -7.612483 0.207122
v  2.165092 -7.612483 0.107194
v  4.365269 -7.612483 0.107194
v  5.279252 -2.045194 -0.001410
v  5.347717 1.904506 -0.001410
v  4.745513 6.242199 -0.001410
v  1.662633 8.091681 -0.001410
v  -2.022450 8.091681 -0.001410
v  -5.011870 6.242199 -0.001410
v  -5.663623 1.904506 -0.001410
v  -5.145169 -2.045194 -0.001410
# 44 vertices

vn -0.805371 -0.095941 -0.584955
vn -0.385869 -0.160135 -0.908549
vn -0.244038 -0.102644 -0.964318
vn -0.494942 -0.036276 -0.868168
vn 0.310126 -0.096187 -0.945817
vn 0.385148 -0.118221 -0.915251
vn 0.632237 -0.185495 -0.752242
vn 0.794342 -0.270841 -0.543752
vn -0.327979 0.147305 -0.933130
vn -0.160786 0.131806 -0.978149
vn 0.200447 0.131198 -0.970880
vn 0.449655 0.089553 -0.888702
vn -0.404045 0.403384 -0.820992
vn -0.140725 0.380259 -0.914112
vn 0.128970 0.368147 -0.920779
vn 0.349463 0.335367 -0.874874
vn -0.249074 0.045095 0.967434
vn -0.003128 -0.047355 0.998873
vn -0.167438 0.023982 0.985591
vn -0.333722 0.028070 0.942253
vn 0.345927 -0.244497 0.905845
vn 0.161037 -0.071489 0.984356
vn 0.401855 -0.302611 0.864256
vn 0.279136 -0.120357 0.952679
vn -0.150335 0.085084 0.984967
vn -0.300105 0.076120 0.950864
vn 0.129157 0.095634 0.987002
vn 0.251807 0.099956 0.962602
vn -0.127878 0.193067 0.972817
vn -0.379901 0.219624 0.898577
vn 0.114135 0.183747 0.976325
vn 0.277422 0.185445 0.942681
vn -0.000000 -1.000000 -0.000000
vn 0.000000 -1.000000 -0.000000
vn 0.000004 -1.000000 -0.000003
vn 0.872989 -0.191038 -0.448770
vn 0.936723 -0.172636 -0.304545
vn 0.986901 -0.106515 -0.121163
vn 0.968672 -0.182672 -0.168245
vn 0.982329 0.003020 -0.187139
vn 0.998652 0.037620 -0.035768
vn 0.965192 0.177587 -0.192007
vn 0.989103 0.147151 0.004598
vn 0.984749 -0.086747 0.150811
vn 0.950070 -0.209364 0.231375
vn 0.987526 0.067505 0.142251
vn 0.975427 0.146012 0.164993
vn 0.561694 0.825761 -0.051172
vn 0.315751 0.948842 0.000000
vn 0.279544 0.960027 -0.014239
vn 0.534634 0.844771 -0.022998
vn -0.283351 0.958785 -0.021043
vn -0.290381 0.956741 0.018037
vn -0.597980 0.796569 -0.088866
vn -0.543480 0.837921 0.050171
vn 0.271528 0.962181 0.021931
vn 0.590017 0.799809 0.110387
vn -0.317125 0.948384 -0.000000
vn -0.574686 0.814347 0.081086
vn -0.978652 0.175387 -0.107139
vn -0.988415 -0.023152 -0.150000
vn -0.998691 0.010162 0.050126
vn -0.985354 0.162516 0.051627
vn -0.918751 -0.276797 -0.281568
vn -0.980107 -0.192781 -0.047174
vn -0.943305 -0.223510 -0.245397
vn -0.951363 -0.255118 -0.172697
vn -0.974790 0.009097 0.222938
vn -0.944292 0.190436 0.268413
vn -0.972864 -0.092792 0.211954
vn -0.979724 -0.199019 0.023078
# 71 vertex normals

vt 1.000000 0.000000 0.000000
vt 1.000000 0.333333 0.000000
vt 0.666667 0.333333 0.000000
vt 0.666667 0.000000 0.000000
vt 0.333333 0.333333 0.000000
vt 0.333333 0.000000 0.000000
vt 0.000000 0.333333 0.000000
vt 0.000000 0.000000 0.000000
vt 1.000000 0.666667 0.000000
vt 0.666667 0.666667 0.000000
vt 0.333333 0.666667 0.000000
vt 0.000000 0.666667 0.000000
vt 1.000000 1.000000 0.000000
vt 0.666667 1.000000 0.000000
vt 0.333333 1.000000 0.000000
vt 0.000000 1.000000 0.000000
vt 0.333333 0.500000 0.000000
vt 0.000000 0.500000 0.000000
vt 0.666667 0.500000 0.000000
vt 1.000000 0.500000 0.000000
# 20 texture coords

g Box003
f 1/1/1 2/2/2 3/3/3 4/4/4 
f 4/4/4 3/3/3 5/5/5 6/6/6 
f 6/6/6 5/5/5 7/7/7 8/8/8 
f 2/2/2 9/9/9 10/10/10 3/3/3 
f 3/3/3 10/10/10 11/11/11 5/5/5 
f 5/5/5 11/11/11 12/12/12 7/7/7 
f 9/9/9 13/13/13 14/14/14 10/10/10 
f 10/10/10 14/14/14 15/15/15 11/11/11 
f 11/11/11 15/15/15 16/16/16 12/12/12 
f 17/8/17 18/6/18 19/5/19 20/7/20 
f 18/6/18 21/4/21 22/3/22 19/5/19 
f 21/4/21 23/1/23 24/2/24 22/3/22 
f 20/7/20 19/5/19 25/11/25 26/12/26 
f 19/5/19 22/3/22 27/10/27 25/11/25 
f 22/3/22 24/2/24 28/9/28 27/10/27 
f 26/12/26 25/11/25 29/15/29 30/16/30 
f 25/11/25 27/10/27 31/14/31 29/15/29 
f 27/10/27 28/9/28 32/13/32 31/14/31 
f 1/8/33 4/6/33 33/17/33 34/18/33 
f 4/6/33 6/4/34 35/19/33 33/17/33 
f 6/4/34 8/1/35 36/20/34 35/19/33 
f 34/18/33 33/17/33 18/15/33 17/16/34 
f 33/17/33 35/19/33 21/14/33 18/15/33 
f 35/19/33 36/20/34 23/13/33 21/14/33 
f 8/8/36 7/6/37 37/17/38 36/18/39 
f 7/6/37 12/4/40 38/19/41 37/17/38 
f 12/4/40 16/1/42 39/20/43 38/19/41 
f 36/18/39 37/17/38 24/15/44 23/16/45 
f 37/17/38 38/19/41 28/14/46 24/15/44 
f 38/19/41 39/20/43 32/13/47 28/14/46 
f 16/8/48 15/6/49 40/17/50 39/18/51 
f 15/6/49 14/4/52 41/19/53 40/17/50 
f 14/4/52 13/1/54 42/20/55 41/19/53 
f 39/18/51 40/17/50 31/15/56 32/16/57 
f 40/17/50 41/19/53 29/14/58 31/15/56 
f 41/19/53 42/20/55 30/13/59 29/14/58 
f 13/8/60 9/6/61 43/17/62 42/18/63 
f 9/6/61 2/4/64 44/19/65 43/17/62 
f 2/4/64 1/1/66 34/20/67 44/19/65 
f 42/18/63 43/17/62 26/15/68 30/16/69 
f 43/17/62 44/19/65 20/14/70 26/15/68 
f 44/19/65 34/20/67 17/13/71 20/14/70 
# 42 polygons

